Coordinates
version=1
nRows=17
nColumns=40
inDegrees=yes

Units are S.I. units (second, meters, Newtons, ...)
Angles are in degrees.

endheader
time	pelvis_tilt	pelvis_list	pelvis_rotation	pelvis_tx	pelvis_ty	pelvis_tz	hip_flexion_r	hip_adduction_r	hip_rotation_r	knee_angle_r	knee_angle_r_beta	ankle_angle_r	subtalar_angle_r	mtp_angle_r	hip_flexion_l	hip_adduction_l	hip_rotation_l	knee_angle_l	knee_angle_l_beta	ankle_angle_l	subtalar_angle_l	mtp_angle_l	lumbar_extension	lumbar_bending	lumbar_rotation	arm_flex_r	arm_add_r	arm_rot_r	elbow_flex_r	pro_sup_r	wrist_flex_r	wrist_dev_r	arm_flex_l	arm_add_l	arm_rot_l	elbow_flex_l	pro_sup_l	wrist_flex_l	wrist_dev_l
     34.21614286	     -4.34283204	     -5.64443043	     -3.27871493	      0.84572517	      0.93429175	      0.43929832	     30.79597126	     -2.56033200	     -7.72620428	     39.86079592	     39.86079592	      4.82851775	    -10.99012707	      0.75813268	     11.37323499	     -5.56494223	     -9.04199200	     19.99182107	     19.99182107	     15.05835059	     -9.24092334	     -0.74047242	    -10.46332671	      6.30689195	      0.19994021	     -8.26402317	    -13.24116676	     -1.76419963	     31.66202655	     46.13562502	      0.00000000	      0.00000000	      6.35727957	    -16.40392193	     -2.58951957	     63.11685922	     46.38421451	      0.00000000	      0.00000000
     34.22978571	     -4.31613052	     -5.53993243	     -3.55173608	      0.84398021	      0.93415378	      0.43963848	     30.25858079	     -2.40448138	     -8.28042950	     35.69371230	     35.69371230	      4.61550195	     -8.94986725	      0.27918163	     10.76035547	     -5.50772818	     -9.60702649	     19.67889401	     19.67889401	     15.28292063	     -8.75593581	     -1.08612485	    -10.64553793	      6.07560728	      0.37798481	     -9.32824356	    -13.12555967	     -1.74679573	     31.63990701	     46.12172290	      0.00000000	      0.00000000	      7.10591666	    -16.52766705	     -2.93208237	     64.64301264	     46.45623427	      0.00000000	      0.00000000
     34.24342857	     -4.52368283	     -5.47316711	     -3.76658713	      0.84213899	      0.93359289	      0.44009149	     29.90919848	     -2.07931952	     -8.68466689	     31.50894224	     31.50894224	      4.32042527	     -7.14158604	      0.55805423	     10.48581832	     -5.46949498	     -9.86335559	     19.47472056	     19.47472056	     15.46179061	     -8.58582891	     -1.29635745	    -10.50593260	      5.95533809	      0.20318824	    -10.08112564	    -13.02275095	     -1.76190328	     31.62770866	     46.11430836	      0.00000000	      0.00000000	      7.72546127	    -16.77560677	     -3.18962436	     65.41255544	     46.50077723	      0.00000000	      0.00000000
     34.25707143	     -4.76693386	     -5.34374008	     -4.01165890	      0.84039932	      0.93289283	      0.44078554	     29.57532267	     -1.77687021	     -9.09731558	     27.46529242	     27.46529242	      3.93573608	     -5.08048850	      1.08407856	     10.20013188	     -5.37713655	    -10.18385431	     19.19452316	     19.19452316	     15.65076597	     -8.39771777	     -1.49425407	    -10.30049427	      5.72878670	      0.13902951	    -10.77020814	    -12.83480304	     -1.76095302	     31.59478677	     46.10795399	      0.00000000	      0.00000000	      8.40931540	    -16.96918684	     -3.45135952	     66.15597958	     46.54229655	      0.00000000	      0.00000000
     34.27071429	     -4.84179804	     -5.20973944	     -4.24237864	      0.83890365	      0.93232783	      0.44156737	     29.02783055	     -1.51400742	     -9.68192689	     23.65217107	     23.65217107	      3.50441640	     -2.59762132	      1.70192238	      9.69487033	     -5.27343697	    -10.54089364	     18.88789583	     18.88789583	     15.88242744	     -8.10992737	     -1.78170071	    -10.25788071	      5.49220793	      0.15555635	    -11.40357722	    -12.72410266	     -1.79873913	     31.62951864	     46.10172140	      0.00000000	      0.00000000	      9.13255913	    -17.05238331	     -3.75966727	     67.00113321	     46.59029304	      0.00000000	      0.00000000
     34.28435714	     -4.84835051	     -4.94877876	     -4.47620455	      0.83757256	      0.93171469	      0.44238945	     28.56370437	     -1.49157997	    -10.66095815	     20.46370245	     20.46370245	      3.18611256	      0.62706745	      2.56142958	      9.05720026	     -5.04645826	    -11.11943558	     18.48496783	     18.48496783	     16.01629315	     -7.56992239	     -2.47192898	    -10.30475670	      5.09934793	      0.18622000	    -12.05160382	    -12.62874813	     -2.03583149	     32.12146413	     46.08590138	      0.00000000	      0.00000000	      9.74796854	    -17.05848340	     -4.41675272	     68.13324132	     46.68535325	      0.00000000	      0.00000000
     34.29800000	     -4.87448606	     -4.81027413	     -4.68986954	      0.83635943	      0.93111144	      0.44350384	     28.09277398	     -1.18316318	    -11.14874840	     17.56644924	     17.56644924	      2.71094949	      2.82084032	      3.64023297	      8.44318394	     -4.92558528	    -11.42007537	     18.09729949	     18.09729949	     16.19507468	     -7.38123537	     -2.83802705	    -10.28512956	      4.86406884	      0.19817703	    -12.40220961	    -12.56031762	     -2.11551643	     32.26294508	     46.07948197	      0.00000000	      0.00000000	     10.45594558	    -17.10165784	     -4.78751064	     68.80413588	     46.74032174	      0.00000000	      0.00000000
     34.31164286	     -5.03034360	     -4.58179126	     -4.91032667	      0.83526382	      0.93029478	      0.44478541	     27.91826523	     -0.97536132	    -11.58944899	     15.35005534	     15.35005534	      2.15632235	      4.62995134	      4.61402533	      7.93292669	     -4.71621075	    -11.76216492	     17.63911070	     17.63911070	     16.35164133	     -7.12638048	     -3.15286602	    -10.02249355	      4.49493956	      0.21636561	    -12.65685478	    -12.41097354	     -2.15420666	     32.39035081	     46.07249595	      0.00000000	      0.00000000	     11.04322771	    -17.09131934	     -5.09136228	     69.34340462	     46.78181958	      0.00000000	      0.00000000
     34.32528571	     -5.00819299	     -4.40203385	     -5.10587023	      0.83439157	      0.92975730	      0.44611219	     27.63374514	     -0.81236982	    -12.21906778	     13.77730182	     13.77730182	      1.74182753	      6.52565597	      5.66863681	      7.14429757	     -4.53490926	    -12.14600338	     17.04939792	     17.04939792	     16.46733390	     -6.75726728	     -3.61264002	    -10.01476606	      4.20808947	      0.26449313	    -12.78799037	    -12.37209841	     -2.24458407	     32.62381999	     46.06500061	      0.00000000	      0.00000000	     11.66477224	    -17.01829972	     -5.53798093	     69.92636690	     46.83741471	      0.00000000	      0.00000000
     34.33892857	     -5.04506273	     -4.20550897	     -5.28219656	      0.83370443	      0.92910587	      0.44755450	     27.49617353	     -0.68566038	    -12.70839218	     12.83286069	     12.83286069	      1.44194694	      7.82163666	      6.52508859	      6.39199411	     -4.33376330	    -12.49791578	     16.41557686	     16.41557686	     16.54709745	     -6.39550999	     -4.09750887	     -9.89298152	      3.90293511	      0.25534293	    -12.81177980	    -12.32635527	     -2.34178173	     32.90765408	     46.05666939	      0.00000000	      0.00000000	     12.16848438	    -16.90903273	     -6.00122728	     70.40960209	     46.89223793	      0.00000000	      0.00000000
     34.35257143	     -5.11247688	     -3.98872020	     -5.40770924	      0.83318454	      0.92834286	      0.44909844	     27.44327687	     -0.60088898	    -12.96310453	     12.42468921	     12.42468921	      1.15680581	      8.43287702	      6.95340683	      5.69582606	     -4.11117117	    -12.76798127	     15.82741532	     15.82741532	     16.68088712	     -6.05498184	     -4.43164250	     -9.65997450	      3.59108688	      0.19515832	    -12.70940733	    -12.28239969	     -2.40591197	     33.15533413	     46.04962203	      0.00000000	      0.00000000	     12.63240130	    -16.83861358	     -6.33571178	     70.76829596	     46.93138303	      0.00000000	      0.00000000
     34.36621429	     -5.20083894	     -3.90234050	     -5.47647136	      0.83287036	      0.92736734	      0.45074261	     27.41722752	     -0.42086015	    -13.09600844	     12.48130461	     12.48130461	      0.94835027	      8.41495358	      7.02716664	      5.27335112	     -4.08233034	    -12.81971774	     15.77979817	     15.77979817	     17.00697208	     -6.11388332	     -4.55555505	     -9.32359917	      3.47873469	      0.12381991	    -12.61087511	    -12.31139547	     -2.42050298	     33.21195574	     46.04892949	      0.00000000	      0.00000000	     12.82961355	    -16.82878734	     -6.35854257	     70.85659680	     46.93613336	      0.00000000	      0.00000000
     34.37985714	     -5.24516638	     -3.82367504	     -5.47018984	      0.83272163	      0.92661981	      0.45238509	     27.28850189	     -0.30254694	    -13.33485360	     12.81507294	     12.81507294	      0.80632962	      8.41236064	      6.99233793	      4.39123501	     -3.98489959	    -13.00968446	     14.90921932	     14.90921932	     17.17290480	     -5.52279831	     -4.71379343	     -9.18120215	      3.34667284	      0.00595487	    -12.04532478	    -12.43249725	     -2.50592465	     33.59722964	     46.04222453	      0.00000000	      0.00000000	     13.52207324	    -16.71717221	     -6.60203760	     71.23074279	     46.96705357	      0.00000000	      0.00000000
     34.39350000	     -4.98170426	     -3.56195104	     -5.53436915	      0.83331105	      0.92610638	      0.45412990	     26.91019363	     -0.41695644	    -13.25976811	     13.62543070	     13.62543070	      0.93816233	      8.19752563	      6.57041366	      2.99065446	     -3.63828950	    -13.48488801	     13.78082444	     13.78082444	     17.28790185	     -4.64010661	     -5.03966986	     -9.20655212	      3.01386431	     -0.09563465	    -11.91194010	    -12.50541752	     -2.69163293	     34.13473375	     46.03080368	      0.00000000	      0.00000000	     13.52586326	    -16.54055346	     -7.16868149	     71.49440032	     47.01757935	      0.00000000	      0.00000000
     34.40714286	     -4.93011953	     -3.45309628	     -5.47210852	      0.83388919	      0.92508808	      0.45593112	     26.54441094	     -0.32832715	    -13.02587784	     14.19141930	     14.19141930	      0.50443115	      7.43370718	      4.55788613	      2.08884721	     -3.55396243	    -13.75872404	     13.13968149	     13.13968149	     17.24467525	     -4.07163894	     -6.11675169	     -9.03651761	      2.90457283	     -0.52051767	    -11.87791217	    -12.64655180	     -3.31726589	     35.94143710	     45.98315728	      0.00000000	      0.00000000	     13.23066892	    -16.05867193	     -8.93366165	     72.38316773	     47.18851298	      0.00000000	      0.00000000
     34.42078571	     -4.85621242	     -3.31244086	     -5.35664839	      0.83452764	      0.92406339	      0.45771459	     26.29139733	     -0.35232938	    -12.73511461	     15.16537467	     15.16537467	      0.77346530	      6.66920639	      3.97175890	      1.23247970	     -3.41706157	    -13.77707832	     12.64401803	     12.64401803	     17.57288836	     -3.66879509	     -6.05833319	     -8.82851522	      2.77443697	     -0.69750007	    -11.45251212	    -12.78448035	     -3.41632134	     36.28160058	     45.97622603	      0.00000000	      0.00000000	     13.31516190	    -16.01762732	     -8.94383020	     72.38617623	     47.19629636	      0.00000000	      0.00000000
     34.43442857	     -4.77559613	     -3.24028749	     -5.18279864	      0.83534246	      0.92305594	      0.45954529	     25.97558128	     -0.31039209	    -12.38993640	     16.09698142	     16.09698142	      1.11049740	      5.77373313	      3.31113480	      0.46762180	     -3.39596901	    -13.75692371	     12.36341071	     12.36341071	     17.97337394	     -3.32936923	     -5.90248103	     -8.62608242	      2.73425135	     -0.89542141	    -11.02829681	    -12.95678385	     -3.57531947	     36.75192126	     45.96779141	      0.00000000	      0.00000000	     13.30690523	    -15.92652375	     -9.00123148	     72.40462319	     47.20587087	      0.00000000	      0.00000000
